<svg width="18" height="18" viewBox="0 0 18 18" fill="none" xmlns="http://www.w3.org/2000/svg">
<g clip-path="url(#clip0_150_520)">
<path d="M2 2.5C1.46957 2.5 0.960859 2.71071 0.585786 3.08579C0.210714 3.46086 0 3.96957 0 4.5L0 13.5C0 14.0304 0.210714 14.5391 0.585786 14.9142C0.960859 15.2893 1.46957 15.5 2 15.5H5.5V2.5H2Z" fill="#006847"/>
<path d="M16 2.5H12.5V15.5H16C16.5304 15.5 17.0391 15.2893 17.4142 14.9142C17.7893 14.5391 18 14.0304 18 13.5V4.5C18 3.96957 17.7893 3.46086 17.4142 3.08579C17.0391 2.71071 16.5304 2.5 16 2.5Z" fill="#CE1126"/>
<path d="M5.5 2.5H12.5V15.5H5.5V2.5Z" fill="#EEEEEE"/>
<path d="M11.5 9C11.5 9.66304 11.2366 10.2989 10.7678 10.7678C10.2989 11.2366 9.66304 11.5 9 11.5C8.33696 11.5 7.70107 11.2366 7.23223 10.7678C6.76339 10.2989 6.5 9.66304 6.5 9H6C6 9.79565 6.31607 10.5587 6.87868 11.1213C7.44129 11.6839 8.20435 12 9 12C9.79565 12 10.5587 11.6839 11.1213 11.1213C11.6839 10.5587 12 9.79565 12 9H11.5Z" fill="#A6D388"/>
<path d="M6.77154 10.1345C6.75661 10.1052 6.73606 10.0792 6.71107 10.0579C6.68608 10.0366 6.65713 10.0204 6.62588 10.0102C6.59463 10.0001 6.56169 9.99626 6.52894 9.99887C6.4962 10.0015 6.46429 10.0105 6.43504 10.0255C6.40573 10.0404 6.37965 10.0609 6.35828 10.0859C6.33691 10.1108 6.32068 10.1398 6.31051 10.171C6.30034 10.2023 6.29643 10.2352 6.29901 10.268C6.30159 10.3008 6.3106 10.3327 6.32554 10.362C6.37054 10.4506 6.41987 10.5366 6.47354 10.62L6.47554 10.6235L6.47954 10.6295L6.48104 10.633L6.48154 10.634L6.48354 10.6365L6.48504 10.6395V10.6405L6.48654 10.643L6.48704 10.644L6.48854 10.6465L6.48904 10.6475L6.49054 10.6495L6.49154 10.651L6.49254 10.6525L6.49304 10.654L6.49454 10.6565L6.49504 10.657L6.49604 10.6585L6.49754 10.6615L6.49804 10.6625L6.49954 10.665L6.50004 10.666L6.50354 10.671V10.6715L6.50604 10.675C6.53204 10.713 6.55887 10.7511 6.58654 10.7885C6.60606 10.8147 6.63058 10.8369 6.65868 10.8536C6.68679 10.8704 6.71792 10.8814 6.7503 10.8861C6.78268 10.8908 6.81567 10.8891 6.84737 10.881C6.87907 10.8729 6.90886 10.8586 6.93504 10.839C6.98817 10.7994 7.02344 10.7404 7.03309 10.6749C7.04275 10.6094 7.026 10.5427 6.98654 10.4895C6.90676 10.3763 6.83492 10.2576 6.77154 10.1345ZM6.52304 9.34348C6.50378 9.20553 6.49609 9.06621 6.50004 8.92698C6.50192 8.86076 6.47744 8.79649 6.43197 8.7483C6.3865 8.70011 6.32376 8.67194 6.25754 8.66998L6.23954 8.67048C6.17644 8.67324 6.11671 8.69977 6.07238 8.74476C6.02804 8.78975 6.00237 8.84985 6.00054 8.91298C5.99936 8.96481 5.9992 9.01665 6.00004 9.06848V9.11348L6.00054 9.11598V9.12998L6.00104 9.13148L6.00054 9.13248V9.13398L6.00104 9.13498V9.14948L6.00154 9.15098V9.15648L6.00204 9.16598L6.00254 9.17048V9.17598C6.0072 9.25598 6.01487 9.33548 6.02554 9.41448C6.03484 9.47982 6.06961 9.53883 6.12225 9.57864C6.17489 9.61845 6.24113 9.63583 6.30654 9.62698C6.33941 9.62268 6.3711 9.61191 6.3998 9.59531C6.42849 9.57871 6.45363 9.5566 6.47375 9.53026C6.49387 9.50391 6.50858 9.47385 6.51704 9.44179C6.5255 9.40974 6.52754 9.37633 6.52304 9.34348ZM9.17004 11.4935L9.16704 11.494L9.10504 11.498C8.98661 11.5029 8.86797 11.4994 8.75004 11.4875C8.68407 11.4809 8.61816 11.5007 8.56682 11.5427C8.51548 11.5846 8.48292 11.6453 8.47629 11.7112C8.46966 11.7772 8.48951 11.8431 8.53147 11.8944C8.57343 11.9458 8.63407 11.9784 8.70004 11.985L8.76254 11.9905L8.76454 11.991L8.76554 11.9905L8.76704 11.991H8.76804L8.77104 11.9915H8.77404L8.77554 11.992L8.77904 11.9915L8.78054 11.992H8.78304L8.78604 11.9925L8.78854 11.993H8.79504L8.79804 11.9935H8.80454C8.88054 11.9988 8.95704 12.0008 9.03404 11.9995H9.05354L9.05704 11.999L9.06004 11.9995H9.06754L9.07004 11.999H9.07954L9.08254 11.9985L9.08554 11.999L9.08604 11.9985L9.08904 11.999H9.08954L9.09204 11.9985H9.09604L9.09904 11.998H9.10204L9.10254 11.9985L9.10554 11.998H9.10904L9.11154 11.9975H9.12154L9.12404 11.997H9.12604L9.12804 11.9965L9.13004 11.997H9.13254L9.13454 11.9965H9.13704L9.20054 11.993C9.26529 11.9877 9.32537 11.9572 9.36777 11.908C9.41016 11.8587 9.43146 11.7948 9.42704 11.73C9.42575 11.6976 9.41808 11.6657 9.40445 11.6363C9.39083 11.6068 9.37153 11.5803 9.34765 11.5584C9.32377 11.5364 9.29579 11.5193 9.26531 11.5082C9.23483 11.4971 9.20246 11.4921 9.17004 11.4935ZM7.95054 11.2695C7.82437 11.2112 7.70328 11.1424 7.58854 11.064C7.54405 11.0335 7.49091 11.0183 7.43704 11.0205C7.38468 11.0227 7.33434 11.0413 7.29313 11.0737C7.25192 11.1061 7.22193 11.1506 7.2074 11.2009C7.19286 11.2513 7.19452 11.3049 7.21213 11.3543C7.22974 11.4036 7.26241 11.4462 7.30554 11.476L7.30604 11.4765L7.30904 11.478L7.31204 11.481L7.31504 11.483L7.31804 11.4855C7.45137 11.5761 7.5917 11.6555 7.73904 11.7235C7.79912 11.7512 7.86776 11.754 7.9299 11.7313C7.99204 11.7085 8.04262 11.662 8.07054 11.602C8.09871 11.542 8.10189 11.4732 8.07938 11.4109C8.05688 11.3485 8.01054 11.2977 7.95054 11.2695ZM10.4655 11.0705C10.4214 11.0726 10.3786 11.0864 10.3415 11.1105C10.2248 11.185 10.102 11.2498 9.97454 11.304C9.91953 11.3258 9.8741 11.3665 9.84639 11.4188C9.81869 11.4711 9.81051 11.5316 9.82333 11.5893C9.83615 11.6471 9.86912 11.6984 9.91635 11.7341C9.96357 11.7698 10.022 11.7875 10.081 11.784C10.1108 11.7828 10.1401 11.7764 10.1675 11.765L10.2345 11.735H10.2355L10.2385 11.733L10.2395 11.7325L10.2415 11.7315H10.2435L10.2455 11.7305L10.2465 11.7295L10.2495 11.729L10.2505 11.728L10.252 11.727L10.2545 11.726L10.256 11.7255L10.2585 11.7245L10.2595 11.724L10.262 11.723L10.263 11.7225C10.264 11.7215 10.2649 11.721 10.2655 11.721L10.2665 11.7205L10.2695 11.719H10.2705L10.2735 11.7175L10.2765 11.716L10.2775 11.7155L10.28 11.714L10.281 11.7135L10.284 11.712L10.2845 11.7115L10.288 11.711L10.2915 11.709L10.2925 11.7085L10.2945 11.707H10.2955L10.2985 11.705L10.3025 11.704L10.3055 11.702L10.3095 11.7L10.31 11.6995L10.317 11.6965L10.3205 11.695L10.3275 11.691L10.3315 11.6895L10.3345 11.688L10.342 11.684L10.345 11.6825L10.3565 11.6765L10.36 11.6755L10.367 11.6715L10.3705 11.6695H10.371C10.3714 11.6688 10.3725 11.6685 10.3745 11.6685C10.3755 11.6671 10.3765 11.6663 10.3775 11.666L10.3815 11.664L10.3845 11.6625V11.662L10.3915 11.659L10.3955 11.657L10.396 11.6565L10.3985 11.655L10.4025 11.653L10.4055 11.6515H10.4065L10.4095 11.6495L10.413 11.6475L10.4135 11.647L10.4165 11.6455L10.4195 11.644L10.4205 11.6435L10.4225 11.642L10.424 11.6415L10.4265 11.64L10.4275 11.6395L10.43 11.638L10.431 11.6375L10.434 11.6365C10.4337 11.6361 10.4339 11.636 10.4345 11.636L10.4375 11.6345L10.4385 11.634L10.4405 11.6325L10.4415 11.632L10.4445 11.6305L10.4455 11.63C10.4455 11.6293 10.4462 11.6288 10.4475 11.6285L10.449 11.628L10.451 11.627L10.4525 11.626L10.4545 11.625L10.456 11.624L10.4575 11.623L10.459 11.6215L10.4615 11.621L10.4635 11.6205L10.4645 11.6195L10.4665 11.6185L10.4685 11.617L10.4695 11.6165L10.4715 11.6155L10.4735 11.614L10.475 11.613C10.4757 11.6133 10.4765 11.6131 10.4775 11.6125L10.4785 11.6115L10.4805 11.6105L10.482 11.6095L10.4835 11.6085L10.4855 11.6075L10.4875 11.606L10.4885 11.6055C10.4899 11.6055 10.4912 11.605 10.4925 11.604C10.4915 11.604 10.4915 11.6036 10.4925 11.604L10.4945 11.6025L10.498 11.6L10.499 11.5995L10.5025 11.598L10.5085 11.5945L10.5125 11.592L10.5225 11.5865C10.5545 11.5675 10.5867 11.548 10.618 11.528C10.6738 11.4923 10.7132 11.4359 10.7274 11.3712C10.7417 11.3065 10.7297 11.2388 10.694 11.183C10.6678 11.1472 10.6334 11.1183 10.5936 11.0987C10.5538 11.0791 10.5099 11.0694 10.4655 11.0705ZM11.751 8.76148L11.739 8.76198C11.6747 8.76469 11.614 8.79208 11.5694 8.83846C11.5247 8.88484 11.4997 8.94663 11.4995 9.01098C11.4995 9.14948 11.487 9.28948 11.4635 9.42548C11.4524 9.49092 11.4677 9.55811 11.5061 9.61226C11.5445 9.66641 11.6028 9.70309 11.6683 9.71423C11.7337 9.72537 11.8009 9.71006 11.8551 9.67166C11.9092 9.63326 11.9459 9.57492 11.957 9.50948V9.50698L11.9575 9.50598L11.958 9.50498L11.9575 9.50398L11.958 9.50298V9.50198L11.9585 9.50098V9.49948L11.959 9.49848V9.49398L11.96 9.49198V9.48898C11.9708 9.42412 11.9795 9.35892 11.986 9.29348L11.9855 9.29298L11.986 9.29148L11.9865 9.28898V9.28348L11.9875 9.28198L11.987 9.27998V9.27898L11.9875 9.27748V9.27548L11.9885 9.27498L11.9875 9.27348V9.27148C11.9885 9.27082 11.9889 9.27032 11.9885 9.26998V9.26048L11.9895 9.25898C11.9964 9.17666 11.9999 9.09359 12 9.01098C11.9999 8.94494 11.9736 8.88163 11.927 8.83488C11.8803 8.78813 11.8171 8.76175 11.751 8.76148ZM11.5295 10.1095C11.5008 10.0936 11.4692 10.0835 11.4365 10.0798C11.4039 10.0761 11.3708 10.0789 11.3392 10.088C11.3076 10.0971 11.2782 10.1123 11.2525 10.1328C11.2268 10.1533 11.2054 10.1787 11.1895 10.2075C11.1221 10.3291 11.0447 10.4448 10.958 10.5535C10.9172 10.6054 10.8986 10.6714 10.9063 10.7371C10.914 10.8027 10.9474 10.8626 10.9991 10.9037C11.0508 10.9448 11.1167 10.9638 11.1824 10.9564C11.2481 10.9491 11.3082 10.916 11.3495 10.8645C11.4079 10.7911 11.4629 10.7153 11.5145 10.637C11.5159 10.6336 11.5177 10.6303 11.52 10.627L11.5205 10.6265L11.5225 10.6235L11.5245 10.6195C11.5259 10.6185 11.5265 10.6175 11.5265 10.6165L11.527 10.617L11.529 10.614V10.6135L11.5305 10.61L11.5315 10.6095L11.5335 10.6065L11.535 10.6035L11.5355 10.603L11.5375 10.6L11.538 10.599L11.539 10.5965L11.5405 10.5955L11.5415 10.593H11.5425L11.5435 10.59L11.544 10.589L11.546 10.587L11.5465 10.586C11.5465 10.585 11.547 10.5841 11.548 10.5835L11.5485 10.582L11.5505 10.5805C11.5505 10.5798 11.5509 10.5793 11.5515 10.579V10.577L11.553 10.576L11.5545 10.5735L11.555 10.5725L11.5565 10.5695L11.5575 10.5685L11.5585 10.5665L11.5595 10.565C11.5595 10.5643 11.5599 10.5638 11.5605 10.5635C11.5605 10.5628 11.5609 10.5623 11.5615 10.562L11.563 10.5595L11.5635 10.558L11.5645 10.5565L11.5655 10.555C11.5665 10.5543 11.5669 10.5538 11.5665 10.5535C11.5675 10.5531 11.5679 10.5525 11.5675 10.5515L11.5685 10.55L11.57 10.548L11.5715 10.546V10.5445L11.5725 10.543L11.574 10.541L11.5755 10.5395V10.538L11.5775 10.5355V10.534C11.5785 10.5336 11.579 10.533 11.579 10.532L11.58 10.531L11.581 10.5295L11.5825 10.527L11.5835 10.5255V10.5245L11.5855 10.522C11.5855 10.5213 11.5859 10.5208 11.5865 10.5205L11.587 10.519L11.5885 10.517L11.5895 10.515L11.5905 10.5135L11.5915 10.5115C11.5915 10.5108 11.5919 10.5105 11.5925 10.5105L11.5935 10.508L11.5945 10.507L11.5955 10.504L11.5965 10.5035L11.5975 10.5015L11.5985 10.5005L11.5995 10.498L11.6005 10.497L11.6015 10.494C11.6022 10.4933 11.6022 10.493 11.6015 10.493L11.6035 10.4905L11.604 10.4895L11.606 10.487V10.4865L11.6075 10.4835L11.6085 10.4825L11.6095 10.4795L11.612 10.4765L11.6135 10.4735V10.473L11.6155 10.4695L11.6165 10.469L11.629 10.4455C11.6598 10.3876 11.6666 10.32 11.648 10.2571C11.6294 10.1943 11.5869 10.1413 11.5295 10.1095Z" fill="#5C913B"/>
<path d="M9 11C9.82843 11 10.5 10.7761 10.5 10.5C10.5 10.2239 9.82843 10 9 10C8.17157 10 7.5 10.2239 7.5 10.5C7.5 10.7761 8.17157 11 9 11Z" fill="#55ACEE"/>
<path d="M9.25 11C9.66421 11 10 10.7761 10 10.5C10 10.2239 9.66421 10 9.25 10C8.83579 10 8.5 10.2239 8.5 10.5C8.5 10.7761 8.83579 11 9.25 11Z" fill="#FFCC4D"/>
<path d="M9.55856 10.637C9.51534 10.6367 9.47294 10.6252 9.43546 10.6036C9.39797 10.5821 9.36667 10.5513 9.34456 10.5142C9.32244 10.477 9.31028 10.4348 9.30923 10.3916C9.30818 10.3484 9.31828 10.3057 9.33856 10.2675C9.41856 10.1202 9.50223 9.98768 9.58956 9.87001C9.51793 9.87305 9.44625 9.87455 9.37456 9.87451C9.23656 9.87451 9.11056 9.76201 9.11056 9.62401C9.11056 9.48601 9.20806 9.37401 9.34656 9.37401L9.38756 9.37451C9.53556 9.37451 9.68756 9.36551 9.82356 9.35301C9.86144 9.34919 9.89969 9.35425 9.93527 9.36779C9.97086 9.38133 10.0028 9.40297 10.0286 9.43101C10.0352 9.42534 10.0424 9.42018 10.0501 9.41551C10.1001 9.38251 10.1467 9.35568 10.1901 9.33501C10.2211 9.31132 10.2572 9.29523 10.2956 9.28801L10.3136 9.28451C10.4076 9.25401 10.4736 9.25001 10.5001 9.25001C10.5392 9.24987 10.5778 9.25896 10.6128 9.27655C10.6478 9.29414 10.6781 9.31973 10.7014 9.35125C10.7246 9.38277 10.7401 9.41932 10.7466 9.45793C10.753 9.49655 10.7503 9.53615 10.7386 9.57351C10.6976 9.70651 10.6061 9.73651 10.4456 9.76851C10.4036 9.7853 10.3637 9.80677 10.3266 9.83251C10.2812 9.86169 10.2279 9.87576 10.174 9.87271C10.1202 9.86966 10.0688 9.84963 10.0271 9.81551C10.0611 9.85951 10.0794 9.91358 10.0792 9.96918C10.0791 10.0248 10.0603 10.0787 10.0261 10.1225C9.94072 10.2315 9.85806 10.3595 9.77806 10.5065C9.75658 10.546 9.72485 10.5789 9.68623 10.6019C9.6476 10.6249 9.6035 10.637 9.55856 10.637ZM8.84856 9.84251L8.81556 9.84051C8.63698 9.81732 8.46045 9.78037 8.28756 9.73001C8.25607 9.72067 8.22672 9.70521 8.20121 9.68452C8.17569 9.66383 8.15451 9.63831 8.13886 9.60943C8.12321 9.58055 8.11341 9.54886 8.11001 9.51619C8.10661 9.48352 8.10969 9.45049 8.11906 9.41901L8.12206 9.40901L8.11606 9.42051C8.10002 9.44919 8.07848 9.47442 8.05269 9.49477C8.02689 9.51511 7.99733 9.53018 7.96571 9.53909C7.93408 9.54801 7.90101 9.5506 7.86839 9.54673C7.83576 9.54285 7.80421 9.53259 7.77556 9.51651C7.60899 9.42513 7.45628 9.31047 7.32206 9.17601C7.27652 9.12886 7.25132 9.06571 7.25189 9.00016C7.25246 8.93461 7.27875 8.87191 7.3251 8.82556C7.37146 8.7792 7.43416 8.75291 7.49971 8.75234C7.56526 8.75177 7.62841 8.77697 7.67556 8.82251C7.77456 8.92151 7.88922 9.00734 8.01956 9.08001C8.0705 9.10856 8.10984 9.15404 8.13076 9.20857C8.15167 9.26309 8.15284 9.32322 8.13406 9.37851C8.16032 9.32588 8.20429 9.2842 8.25825 9.26079C8.3122 9.23737 8.37268 9.23374 8.42906 9.25051C8.56706 9.29151 8.71856 9.32301 8.87906 9.34451C8.94203 9.35252 8.9996 9.38418 9.04008 9.43308C9.08056 9.48197 9.10093 9.54444 9.09705 9.6078C9.09317 9.67116 9.06533 9.73067 9.01918 9.77425C8.97304 9.81784 8.91204 9.84225 8.84856 9.84251ZM7.62256 8.67301C7.40956 8.67301 7.13406 8.59051 6.96706 8.39351C6.71106 8.09151 6.56056 7.70401 6.58356 7.40701C6.58956 7.32751 6.51206 7.26351 6.43606 7.24351C6.39256 7.23201 6.31606 7.22501 6.28006 7.30251C6.27316 7.31742 6.2634 7.33082 6.25133 7.34195C6.23925 7.35308 6.22511 7.36173 6.20969 7.36739C6.19428 7.37305 6.1779 7.37563 6.16149 7.37496C6.14508 7.3743 6.12896 7.37041 6.11406 7.36351C6.09915 7.35662 6.08575 7.34685 6.07462 7.33478C6.06349 7.32271 6.05484 7.30856 6.04918 7.29314C6.04351 7.27773 6.04094 7.26135 6.04161 7.24494C6.04227 7.22853 6.04616 7.21242 6.05306 7.19751C6.13106 7.02801 6.30606 6.95251 6.49906 7.00151C6.67806 7.04801 6.84956 7.20901 6.83256 7.42651C6.81456 7.65751 6.94556 7.98101 7.15756 8.23151C7.26906 8.36351 7.46306 8.41701 7.59506 8.42201C7.70256 8.42751 7.75706 8.40301 7.76856 8.39251C7.74056 8.32601 7.37006 8.13101 7.21206 8.04801C7.07756 7.97751 7.03756 7.88051 7.02756 7.81201C6.99406 7.58451 7.22756 7.35401 7.45356 7.13201C7.53306 7.05351 7.60856 6.97951 7.64956 6.92501C7.69606 6.86351 7.68856 6.82251 7.67956 6.79701C7.64506 6.70351 7.49556 6.61101 7.31556 6.57101C7.14856 6.53368 7.03722 6.45384 6.98156 6.33151C6.90906 6.17101 6.94756 5.96101 7.09856 5.68901C7.10654 5.67466 7.11726 5.66203 7.13012 5.65183C7.14298 5.64163 7.15773 5.63406 7.17351 5.62955C7.1893 5.62505 7.20582 5.6237 7.22213 5.62558C7.23843 5.62746 7.25421 5.63253 7.26856 5.64051C7.2829 5.64849 7.29554 5.65921 7.30574 5.67207C7.31594 5.68494 7.32351 5.69968 7.32802 5.71547C7.33252 5.73125 7.33387 5.74777 7.33199 5.76408C7.33011 5.78039 7.32504 5.79616 7.31706 5.81051C7.17456 6.06651 7.18856 6.18251 7.20956 6.22901C7.23056 6.27501 7.28389 6.30751 7.36956 6.32651C7.58106 6.37351 7.83556 6.49901 7.91356 6.71001C7.95806 6.83051 7.93556 6.96051 7.84956 7.07501C7.79756 7.14451 7.71556 7.22501 7.62906 7.31051C7.50006 7.43751 7.25956 7.67401 7.27506 7.77601C7.27806 7.79701 7.30556 7.81551 7.32856 7.82701C7.70406 8.02401 7.95356 8.16651 8.00456 8.34101C8.01336 8.3708 8.01604 8.40206 8.01243 8.43291C8.00882 8.46376 7.999 8.49356 7.98356 8.52051C7.93506 8.60501 7.83406 8.65701 7.69106 8.67001C7.66939 8.67201 7.64656 8.67301 7.62256 8.67301Z" fill="#5C913B"/>
<path d="M9.75 9.5C9.88807 9.5 10 9.27614 10 9C10 8.72386 9.88807 8.5 9.75 8.5C9.61193 8.5 9.5 8.72386 9.5 9C9.5 9.27614 9.61193 9.5 9.75 9.5Z" fill="#FFCC4D"/>
<path d="M8.64602 8.59398C8.64602 8.73798 8.47352 8.85448 8.26052 8.85448C8.04802 8.85448 7.87502 8.73798 7.87502 8.59398C7.87502 8.44998 8.04752 8.33348 8.26052 8.33348C8.47302 8.33348 8.64602 8.44998 8.64602 8.59398ZM8.05252 6.28048C8.07752 6.38648 7.93902 6.51048 7.74302 6.55698C7.54702 6.60348 7.36802 6.55498 7.34252 6.44898C7.31752 6.34248 7.45602 6.21848 7.65152 6.17198C7.84802 6.12598 8.02752 6.17398 8.05252 6.28048Z" fill="#FFCC4D"/>
<path d="M11.2665 8.97753C11.3115 9.01253 11.388 8.61303 11.3765 8.48853C11.3765 8.48003 11.362 8.21553 11.418 8.02653C11.4525 7.96253 11.4545 7.48503 11.4015 7.35953C11.4435 7.35603 11.494 7.34253 11.5 7.29153C11.306 7.36303 11.2605 6.88303 11.074 6.60703C10.893 6.33053 10.6685 6.16953 10.434 6.00153C10.4537 5.95254 10.481 5.90697 10.515 5.86653C10.2275 6.01053 9.77951 5.48903 9.11751 5.52803C8.96901 5.54253 8.89851 5.55153 8.86051 5.64253C8.73701 5.65253 8.61151 5.68053 8.61151 5.84303C8.61151 5.88203 8.64701 5.95303 8.72601 5.95353C8.83401 5.98503 8.92201 5.96053 8.99551 6.11153L9.01501 6.26753C9.01501 6.26753 8.91851 6.14403 8.86551 6.12453L8.89801 6.05803C8.84801 6.02903 8.75951 6.05253 8.75951 6.05253C8.75951 6.05253 8.56701 5.96253 8.41251 5.98653L8.38251 5.86153C8.35551 5.93853 8.29501 5.93453 8.28651 6.00703C8.26951 5.95503 8.24701 5.89053 8.23101 5.83853C8.17651 5.91253 8.19251 5.99253 8.17301 6.06953C8.15201 6.08753 8.10901 6.08803 8.09801 6.03853C8.09251 5.97753 8.08501 5.97203 8.08501 5.89953C8.04601 5.96803 7.99901 6.00153 7.98351 6.11903L7.94201 5.98903C7.94351 6.14253 7.81151 6.23403 7.68651 6.34253C7.65101 6.40753 7.69201 6.40803 7.69501 6.44153L7.76101 6.47453L7.87951 6.46603C7.89901 6.49053 7.88301 6.49253 7.93451 6.50803C8.07251 6.54653 8.24451 6.38103 8.37951 6.64153C8.31751 6.69353 8.25501 6.81503 8.27501 6.83803C8.30001 6.83803 8.22501 6.87303 8.32601 6.84103C8.22101 6.94303 8.15001 7.07753 8.15001 7.08553C8.13801 7.11453 8.19201 7.08153 8.18101 7.13403L8.20601 7.13103C7.96651 7.39003 8.19801 7.66853 8.17251 7.81803C8.21251 7.88253 8.21751 7.81653 8.26751 7.81003C8.30951 7.99403 8.43051 8.10553 8.50451 8.25103L8.34851 8.25253C8.35201 8.32153 8.41451 8.38703 8.46401 8.44753L8.35951 8.48053C8.2921 8.5137 8.2322 8.56032 8.18351 8.61753C8.14901 8.70153 8.35001 8.72153 8.44701 8.73653L8.44351 8.83803C8.59501 8.85253 8.77001 8.80753 8.77001 8.79903L8.80801 8.76953L8.89351 8.81653C8.92201 8.81653 8.96651 8.70253 8.94601 8.61503C9.00101 8.68053 9.05301 8.78603 9.10801 8.85203L9.15951 8.84503C9.20651 8.91953 9.27101 8.99353 9.31801 9.06803L9.37051 9.08803C9.40101 9.07753 9.42701 9.07403 9.44351 9.01403L9.46751 9.05603L9.55051 8.99903L9.60851 8.98753L9.65201 9.05853C9.67751 9.04903 9.70251 8.99353 9.70401 8.93453C9.73001 8.98603 9.73701 8.98203 9.75601 8.99553L9.79451 8.91453L10.002 9.10853L10.159 9.11753C10.215 9.15553 10.3685 9.17953 10.3945 9.11803C10.5205 9.17203 10.669 9.11103 10.6615 9.05103C10.7775 9.09703 10.956 9.06603 10.956 9.05853C10.9775 9.05603 11.0325 9.00203 10.9805 8.96153C10.597 8.69453 10.0285 8.25253 9.80901 8.14603C9.80901 8.06703 9.74951 7.78253 9.68551 7.70453L9.73751 7.61753C9.88701 7.75703 9.94101 7.74353 10.0205 7.76553C10.1055 7.83303 10.135 7.93553 10.22 8.02903L10.296 8.04303C10.2338 7.88045 10.1396 7.73202 10.019 7.60653C10.101 7.64753 10.237 7.75703 10.328 7.83653C10.388 7.93703 10.4055 8.01703 10.4605 8.14303C10.5005 8.16853 10.5415 8.26203 10.536 8.18453C10.5265 8.03903 10.424 7.80853 10.424 7.79203C10.587 7.92103 10.585 8.12203 10.6345 8.24453C10.676 8.30653 10.697 8.38953 10.715 8.37003L10.667 7.99203L10.639 7.85353C10.7595 7.92303 10.8025 8.18803 10.859 8.50603C10.859 8.55653 10.8795 8.61203 10.8765 8.64453C10.9025 8.67653 10.932 8.76503 10.9315 8.71253C10.9315 8.71253 10.9315 8.19553 10.896 8.07703C10.887 8.01353 10.911 7.91053 10.911 7.91053C10.955 8.12503 11.002 8.35753 11.0465 8.57153V8.72903L11.1125 8.79553C11.125 8.66553 11.14 8.53653 11.153 8.40753L11.1035 7.94503V7.81303C11.1025 7.76653 11.146 7.77503 11.1735 7.82803C11.18 7.94153 11.18 8.03003 11.1845 8.14303C11.204 8.27203 11.2175 8.36653 11.227 8.53103C11.2325 8.66403 11.2385 8.98303 11.2665 8.97753Z" fill="#C1694F"/>
</g>
<defs>
<clipPath id="clip0_150_520">
<rect width="18" height="18" fill="white"/>
</clipPath>
</defs>
</svg>
